<?xml version="1.0" encoding="utf-8"?>
<!-- Generator: Adobe Illustrator 24.0.2, SVG Export Plug-In . SVG Version: 6.00 Build 0)  -->
<svg version="1.1" xmlns="http://www.w3.org/2000/svg" xmlns:xlink="http://www.w3.org/1999/xlink" x="0px" y="0px"
	 viewBox="0 0 639 463" style="enable-background:new 0 0 639 463;" xml:space="preserve">
<style type="text/css">
	.st0{fill:#FFFFFF;}
	.st1{fill:#D4AF37;}
</style>
<g id="screen">
	<g>
		<rect x="20" y="20" class="st0" width="599" height="310"/>
		<path class="st1" d="M599,40v270H40V40H599 M626.41,0H12.59C5.63,0,0,5.63,0,12.59v324.83C0,344.37,5.63,350,12.59,350h613.83
			c6.95,0,12.59-5.63,12.59-12.59V12.59C639,5.63,633.37,0,626.41,0L626.41,0z"/>
	</g>
</g>
<g id="base">
	<g>
		<path class="st1" d="M415.98,463H223.02c-4.71,0-8.52-3.82-8.52-8.52v-31.5c0-45.27,36.7-81.98,81.98-81.98h46.05
			c45.27,0,81.98,36.7,81.98,81.98v31.5C424.5,459.18,420.68,463,415.98,463z"/>
	</g>
</g>
<g id="Layer_4">
	<g>
		<g>
			<path class="st1" d="M529.07,140L197.03,284.79l-61.54-27.34L109.93,101.2l79.32,35.24l11.46,81.09l248.36-113.06L529.07,140z"/>
		</g>
	</g>
</g>
</svg>
